<?xml version="1.0" standalone="no"?>
<!DOCTYPE svg PUBLIC "-//W3C//DTD SVG 20010904//EN"
 "http://www.w3.org/TR/2001/REC-SVG-20010904/DTD/svg10.dtd">
<svg version="1.0" xmlns="http://www.w3.org/2000/svg"
 width="1024.000000pt" height="1024.000000pt" viewBox="0 0 1024.000000 1024.000000"
 preserveAspectRatio="xMidYMid meet">
<metadata>
Created by potrace 1.16, written by Peter Selinger 2001-2019
</metadata>
<g transform="translate(0.000000,1024.000000) scale(0.100000,-0.100000)"
fill="#000000" stroke="none">
<path d="M0 5120 l0 -5120 5120 0 5120 0 0 5120 0 5120 -5120 0 -5120 0 0
-5120z m8680 2296 c58 -97 144 -157 271 -190 l54 -14 -40 -7 c-129 -21 -254
-112 -313 -226 -17 -35 -32 -71 -32 -80 0 -9 -6 -31 -14 -49 l-13 -33 -7 39
c-13 69 -64 159 -120 215 -60 59 -107 87 -204 120 -34 12 -60 24 -58 26 2 3
24 9 48 14 72 16 167 70 213 121 47 52 100 157 117 229 l11 47 26 -77 c14 -42
42 -103 61 -135z m-905 -279 c240 -43 403 -117 553 -252 108 -97 204 -268 242
-429 25 -104 39 -292 32 -417 l-5 -91 -56 -61 c-155 -167 -476 -376 -809 -527
-403 -182 -758 -294 -1397 -441 -143 -33 -323 -69 -343 -69 -8 0 12 23 43 52
162 148 245 357 232 588 -7 121 -30 207 -89 325 -37 73 -40 83 -34 135 4 30
11 90 16 133 7 62 17 90 50 146 92 158 142 337 142 511 0 150 -30 260 -98 361
-19 28 -34 53 -34 56 0 2 330 2 733 0 611 -4 747 -7 822 -20z m1363 -147 c37
-56 113 -109 157 -110 12 0 -1 -11 -34 -27 -30 -14 -70 -42 -90 -62 -33 -33
-45 -54 -78 -131 l-11 -25 -11 30 c-43 113 -102 175 -186 193 l-40 8 52 18
c31 10 69 34 93 58 39 37 89 127 91 166 1 9 6 -1 11 -23 6 -22 26 -65 46 -95z
m-263 -406 c289 -205 360 -524 192 -859 -68 -136 -137 -228 -290 -384 -229
-234 -530 -433 -879 -580 -53 -23 -101 -41 -106 -41 -4 0 -37 -11 -73 -25
-141 -56 -618 -181 -819 -215 -278 -47 -382 -64 -500 -80 -74 -11 -141 -20
-147 -20 -7 0 -13 -4 -13 -9 0 -40 548 -9 880 50 311 55 547 113 760 187 206
72 312 114 408 160 41 20 42 20 42 1 0 -11 -4 -27 -9 -37 -5 -9 -28 -80 -51
-157 -146 -491 -246 -791 -280 -840 -34 -50 -108 -108 -185 -147 -93 -47 -318
-112 -510 -147 -234 -43 -285 -51 -432 -70 -624 -83 -1275 -114 -2183 -106
-575 5 -973 23 -1345 61 -403 40 -831 103 -1090 159 -66 14 -142 30 -169 35
-65 13 -309 82 -317 89 -7 6 -2 50 20 206 38 264 46 305 56 309 7 2 93 -7 191
-20 278 -37 668 -45 648 -13 -11 18 -49 27 -205 49 -524 71 -904 181 -1107
319 -273 186 -284 466 -27 711 l47 45 -6 -30 c-31 -145 -13 -225 71 -315 46
-50 76 -71 158 -111 56 -26 144 -62 196 -79 94 -31 311 -83 402 -95 26 -4 47
-12 47 -17 0 -5 5 -6 10 -3 6 4 41 2 78 -4 385 -59 1003 -75 1712 -46 321 14
790 45 905 60 22 3 110 12 195 20 368 34 749 92 1130 171 227 47 292 62 510
120 170 46 553 171 655 214 11 5 76 31 145 59 69 27 152 63 185 79 155 75 253
124 280 140 17 9 57 33 90 51 62 35 296 189 305 200 3 3 38 33 78 65 148 120
289 297 343 431 38 95 50 219 29 306 -12 47 -49 120 -98 189 -20 29 -14 26 73
-36z"/>
<path d="M7096 6568 c-3 -18 -14 -118 -26 -223 -11 -104 -41 -376 -66 -604
-24 -227 -42 -416 -39 -419 10 -10 227 18 305 39 41 12 106 37 143 57 215 112
333 382 314 722 -10 173 -50 275 -140 355 -82 75 -190 105 -373 105 l-113 0
-5 -32z"/>
<path d="M5709 4401 c-45 -14 -68 -31 -84 -61 -20 -40 -19 -83 4 -111 17 -21
27 -24 89 -23 73 1 96 13 121 61 27 53 0 117 -57 132 -41 12 -38 12 -73 2z"/>
<path d="M3103 4385 c-231 -52 -382 -232 -383 -455 0 -210 171 -342 415 -319
77 8 181 46 210 79 30 33 60 190 36 190 -4 0 -19 -8 -32 -19 -68 -53 -173 -79
-248 -61 -112 27 -152 135 -91 253 46 89 119 135 230 144 65 5 162 -9 186 -28
8 -7 12 -2 12 13 0 13 5 51 10 85 9 67 5 76 -43 101 -53 27 -218 37 -302 17z"/>
<path d="M3581 4391 c-19 -4 -37 -13 -42 -21 -7 -13 -21 -98 -59 -350 -5 -30
-18 -118 -31 -195 -12 -77 -22 -156 -23 -175 l-1 -35 107 -3 c125 -3 119 -8
137 108 13 82 31 198 62 390 37 228 41 262 32 271 -11 11 -133 17 -182 10z"/>
<path d="M5325 4190 c-52 -13 -82 -28 -118 -60 l-36 -31 10 33 c5 18 9 36 9
40 0 5 -47 8 -105 8 -119 0 -105 13 -124 -110 -39 -241 -62 -413 -57 -426 5
-12 24 -14 103 -12 l98 3 22 125 c26 149 58 221 108 244 18 9 35 16 38 16 15
0 14 -44 -4 -158 -11 -70 -22 -151 -26 -180 l-6 -53 103 3 104 3 8 30 c4 17
17 90 28 164 25 164 26 278 4 309 -29 42 -103 66 -159 52z"/>
<path d="M3972 4172 c-96 -34 -198 -142 -223 -235 -6 -23 -9 -74 -7 -113 8
-128 84 -202 217 -212 93 -6 177 19 250 75 8 6 20 109 15 125 -5 16 -11 14
-62 -14 -68 -39 -147 -45 -181 -14 -32 29 -26 36 34 36 102 0 212 60 246 135
37 81 15 171 -52 209 -50 28 -168 32 -237 8z"/>
<path d="M4565 4179 c-62 -10 -92 -25 -146 -76 -67 -62 -96 -115 -115 -204
-40 -192 51 -313 206 -277 25 6 63 24 85 40 l40 29 5 -28 c5 -28 6 -28 91 -31
l87 -3 10 48 c6 26 16 86 22 133 6 47 17 121 25 165 8 44 16 109 17 144 l3 64
-65 -2 c-35 -1 -77 -9 -92 -17 -22 -12 -33 -12 -50 -3 -35 19 -79 25 -123 18z
m104 -171 c13 -22 14 -36 3 -85 -14 -70 -62 -123 -112 -123 -36 0 -50 23 -50
85 0 55 18 93 61 129 40 34 78 31 98 -6z"/>
<path d="M5993 4182 c-104 -3 -95 6 -112 -107 -6 -38 -22 -142 -36 -230 -14
-88 -27 -170 -29 -183 -2 -12 1 -25 7 -29 9 -6 189 -5 195 2 2 1 12 54 23 116
26 152 42 192 93 234 65 53 70 49 62 -47 -4 -46 -13 -114 -21 -153 -8 -38 -15
-89 -15 -112 l0 -43 99 0 99 0 12 68 c6 37 18 100 25 139 23 117 29 225 15
267 -6 20 -26 47 -44 61 -59 45 -170 27 -238 -39 -15 -14 -29 -26 -31 -26 -2
0 -1 18 3 39 5 27 3 41 -4 43 -6 2 -52 2 -103 0z"/>
<path d="M6657 4170 c-132 -51 -217 -184 -217 -338 0 -97 33 -162 102 -198 35
-18 129 -18 175 1 51 21 66 20 53 -5 -32 -59 -167 -82 -268 -45 -61 22 -71 17
-79 -43 -5 -35 -2 -44 22 -66 59 -55 251 -62 358 -13 79 36 159 119 187 193
18 49 52 242 79 447 11 89 -12 101 -138 72 -58 -14 -69 -14 -103 0 -51 20
-112 18 -171 -5z m165 -147 c38 -35 11 -169 -43 -207 -30 -21 -67 -21 -91 1
-41 37 -8 165 54 203 40 24 56 25 80 3z"/>
<path d="M5634 4172 c-10 -2 -22 -7 -26 -11 -6 -6 -58 -323 -77 -473 l-7 -58
102 0 c57 0 106 4 109 10 13 21 89 520 80 529 -7 6 -149 8 -181 3z"/>
</g>
</svg>
